<?xml version="1.0" encoding="utf-8"?>
<!-- Generator: Fusion 360, Shaper Origin Export Add-In, Version 1.5.0  -->
<svg enable-background="new 0 0 10.74252 10.5221757" height="10.5221757cm" shaper:fusionaddin="version:1.5.0" version="1.1" viewBox="0 0 10.74252 10.5221757" width="10.74252cm" x="0cm" xml:space="preserve" xmlns="http://www.w3.org/2000/svg" xmlns:shaper="http://www.shapertools.com/namespaces/shaper" xmlns:xlink="http://www.w3.org/1999/xlink" y="0cm">
    <path d="M3.062249,1.4928203 A0.4,0.4 210 0,0 3.2086591,2.0392305 L7.1825671,4.3335673 A0.4,0.4 300 0,1 7.322888,4.8901718 A5.5,5.5 31.7009515 1,1 -0.5941095,-2.4461272 L-0.5941095,-2.4461272 -0.5857967,-2.4515612 -0.5769838,-2.4561421 -0.5677627,-2.4598346 -0.5582255,-2.4626035 -0.5484642,-2.4644135 -0.538571,-2.4652328 -0.5286422,-2.4650598 -0.5187757,-2.4639096 -0.5090697,-2.4617975 -0.4996223,-2.4587388 -0.4905312,-2.4547495 -0.4818847,-2.4498671 -0.4737603,-2.4441526 -0.4662352,-2.4376683 -0.4593864,-2.4304765 -0.4532908,-2.4226398 -0.4532908,-2.4226398 -0.4481291,-2.4144383 -0.4437858,-2.4057722 -0.4402936,-2.3967278 -0.4376854,-2.3873912 -0.435994,-2.3778487 -0.4352481,-2.3681871 -0.435447,-2.3584959 -0.4365763,-2.3488664 -0.4386217,-2.3393898 -0.441569,-2.3301571 -0.4454032,-2.3212593 -0.4500918,-2.3127791 -0.4555791,-2.3047887 -0.4618076,-2.2973595 -0.46872,-2.2905628 -0.476259,-2.28447 A5,5 233.8761811 1,0 6.0949482,5.1995284 A0.4,0.4 43.5553347 0,0 6.0050645,4.5774963 L2.8086591,2.7320508 A0.4,0.4 300 0,0 2.262249,2.878461 L1.0691715,4.9449318 A0.4,0.4 30 0,1 0.5475871,5.1045344 A4,4 115.9722313 0,1 -1.6232362,2.2917597 L-1.6232362,2.2917597 -1.6267582,2.2713135 -1.629198,2.2507098 -1.6305551,2.2300061 -1.6308294,2.2092596 -1.6300204,2.1885278 -1.6281281,2.1678681 -1.625152,2.1473378 -1.6210931,2.1269941 -1.6159653,2.1068919 -1.6097896,2.0870847 -1.6025872,2.0676263 -1.5943794,2.0485701 -1.5851874,2.0299697 -1.5750322,2.0118789 -1.5639354,1.9943509 -1.5519264,1.9774342 -1.5390441,1.9611708 -1.5253282,1.9456025 -1.5108185,1.9307711 -1.4955546,1.9167181 -1.4795761,1.9034854 -1.4629228,1.8911147 -1.4456374,1.8796434 -1.4277709,1.8690972 -1.4093756,1.8594998 -1.390504,1.8508752 -1.3712084,1.843247 -1.3515413,1.836639 -1.331555,1.8310749 -1.3113024,1.8265766 -1.2908399,1.8231521 -1.270225,1.8208043 -1.270225,1.8208043 -1.2531956,1.819684 -1.2361338,1.8192986 -1.2190716,1.8196487 -1.202041,1.8207348 -1.1850742,1.8225576 -1.1682031,1.8251172 -1.1514587,1.8284079 -1.1348713,1.8324193 -1.1184712,1.8371409 -1.1022884,1.8425622 -1.0863533,1.8486727 -1.070696,1.8554618 -1.0553468,1.8629191 -1.040336,1.8710339 -1.0256933,1.8797952 -1.0114449,1.8891853 -0.9976149,1.8991831 -0.9842274,1.9097673 -0.9713064,1.9209169 -0.958876,1.9326106 -0.9469604,1.9448272 -0.9355835,1.9575457 -0.9247695,1.9707447 -0.9145415,1.9844024 -0.9049161,1.9984921 -0.8959078,2.0129852 -0.8875309,2.0278532 -0.8798,2.0430677 -0.8727293,2.0586001 -0.8663333,2.0744221 -0.8606264,2.0905049 -0.8556229,2.1068203 A3.1,3.1 164.2002232 0,0 0.3116491,3.7754452 A0.4,0.4 125.8510207 0,0 0.8923312,3.6512282 L2.1920784,1.4 A0.4,0.4 30 0,0 1.8456682,0.8 L-1.1257561,0.8 A0.4,0.4 90 0,1 -1.5063211,0.2768324 A4,4 197.9338707 0,1 -0.2535807,-1.5708827 L-0.2535807,-1.5708827 -0.2413821,-1.5804686 -0.2287018,-1.5894079 -0.2155768,-1.5976817 -0.2020442,-1.6052715 -0.188141,-1.6121586 -0.1739043,-1.6183241 -0.1593711,-1.6237495 -0.1445786,-1.6284161 -0.1295637,-1.6323052 -0.1143652,-1.6354048 -0.0990248,-1.6377131 -0.0835841,-1.6392292 -0.0680848,-1.6399522 -0.0525687,-1.6398812 -0.0370776,-1.6390154 -0.0216531,-1.6373538 -0.006337,-1.6348955 0.0088291,-1.6316406 0.0238059,-1.6275993 0.0385555,-1.6227889 0.0530401,-1.6172268 0.0672219,-1.6109303 0.0810629,-1.6039169 0.0945255,-1.596204 0.1075717,-1.5878088 0.1201637,-1.5787488 0.1322652,-1.5690436 0.1438468,-1.5587219 0.1548807,-1.547815 0.1653393,-1.5363541 0.1751947,-1.5243705 0.1844193,-1.5118954 0.1844193,-1.5118954 0.1921396,-1.5003122 0.1993167,-1.4883859 0.2059303,-1.4761391 0.2119624,-1.4635958 0.2174034,-1.450784 0.2222459,-1.4377329 0.2264824,-1.4244717 0.2301055,-1.4110294 0.2331078,-1.3974353 0.2354817,-1.3837184 0.2372199,-1.3699079 0.2383149,-1.356033 0.2387593,-1.3421228 0.2385508,-1.3282066 0.2376948,-1.3143139 0.2361972,-1.3004743 0.234064,-1.2867173 0.2313012,-1.2730725 0.2279149,-1.2595694 0.2239111,-1.2462376 0.2192958,-1.2331066 0.2140749,-1.220206 0.2082551,-1.207565 0.2018499,-1.1952097 0.1948772,-1.183164 0.1873552,-1.1714519 0.1793019,-1.1600972 0.1707353,-1.149124 0.1616736,-1.1385562 0.1521347,-1.1284176 0.1421367,-1.1187322 0.1316976,-1.109524 A3.1,3.1 229.929587 0,0 -0.3151491,-0.6463353 A0.4,0.4 218.0128512 0,0 0,-0 L6.5357824,-0 A0.4,0.4 90 0,0 6.8892068,-0.5873265 A5,5 332.074949 0,0 4.7662356,-2.6880129 L4.7662356,-2.6880129 4.7507837,-2.6970224 4.736319,-2.7075461 4.7229819,-2.7194658 4.710913,-2.7326637 4.7002501,-2.7470195 4.6910959,-2.7623856 4.6835284,-2.7785947 4.6776247,-2.7954794 4.6734621,-2.812872 4.6710918,-2.8305995 4.6705166,-2.8484789 4.6717339,-2.8663261 4.6747414,-2.8839571 4.6795278,-2.9011896 4.686034,-2.9178517 4.6941845,-2.933775 4.6941845,-2.933775 4.7029732,-2.9475045 4.7129911,-2.9603623 4.7241585,-2.9722372 4.7363691,-2.9830401 4.7495143,-2.9926835 4.7634859,-3.0010797 4.7781744,-3.0081431 4.7934559,-3.0138174 4.809195,-3.0180692 4.8252556,-3.0208661 4.841502,-3.0221757 4.8577984,-3.0219705 4.8740087,-3.0202613 4.889997,-3.0170762 4.9056273,-3.0124435 4.9207637,-3.0063915 A5.5,5.5 294.4596623 0,1 7.8658004,0.2745098 A0.4,0.4 341.7161101 0,1 7.4859949,0.8 L3.6931891,0.8 A0.4,0.4 270 0,0 3.3467789,1 L3.062249,1.4928203z" fill="rgb(0,0,0)" shaper:cutDepth="0.004" shaper:pathType="exterior" transform="matrix(1,0,0,-1,2.8565251,7.5)" vector-effect="non-scaling-stroke" />
</svg>